<?xml version="1.0" encoding="UTF-8" standalone="no"?><svg xmlns="http://www.w3.org/2000/svg" xmlns:xlink="http://www.w3.org/1999/xlink" contentStyleType="text/css" height="982px" preserveAspectRatio="none" style="width:952px;height:982px;background:#FFFFFF;" version="1.1" viewBox="0 0 952 982" width="952px" zoomAndPan="magnify"><defs/><g><!--MD5=[38918c0526e972db39f7d9b63d8cee47]
class Regex--><g id="elem_Regex"><rect codeLine="1" fill="#F1F1F1" height="80.5938" id="Regex" rx="2.5" ry="2.5" style="stroke:#181818;stroke-width:0.5;" width="131" x="486.5" y="614"/><ellipse cx="525.8" cy="630" fill="#A9DCDF" rx="11" ry="11" style="stroke:#181818;stroke-width:1.0;"/><path d="M527.8781,631.8125 L528.2688,632.7969 L527.8781,632.7969 C527.425,632.7969 527.3156,632.8125 527.1594,632.9219 C526.9094,633.0781 526.7531,633.3594 526.7531,633.6563 C526.7531,633.9219 526.8938,634.1719 527.1125,634.3281 C527.2531,634.4531 527.4563,634.5 527.8781,634.5 L530.2375,634.5 C530.5969,634.5 530.8156,634.4688 530.9563,634.375 C531.2063,634.2344 531.3625,633.9375 531.3625,633.6563 C531.3625,633.375 531.2219,633.125 531.0031,632.9688 C530.8313,632.8281 530.675,632.7969 530.2063,632.7969 L526.8156,624.5938 L523.1438,624.5938 C522.6906,624.5938 522.5656,624.6094 522.4094,624.7031 C522.1594,624.875 522.0031,625.1563 522.0031,625.4375 C522.0031,625.7188 522.1438,625.9688 522.3625,626.1406 C522.5344,626.25 522.7063,626.2813 523.1438,626.2813 L524.2219,626.2813 L521.5813,632.7969 C521.1594,632.7969 521.0031,632.8125 520.8469,632.9219 C520.5969,633.0781 520.4406,633.3594 520.4406,633.6563 C520.4406,634.2188 520.8156,634.5 521.5656,634.5 L523.8313,634.5 C524.1906,634.5 524.4094,634.4688 524.5344,634.375 C524.8,634.2344 524.9406,633.9375 524.9406,633.6563 C524.9406,633.375 524.8156,633.125 524.5969,632.9531 C524.425,632.8281 524.2844,632.7969 523.8313,632.7969 L523.4406,632.7969 L523.8313,631.8125 L527.8781,631.8125 Z M527.175,630.1094 L524.5031,630.1094 L525.8469,626.8438 L527.175,630.1094 Z " fill="#000000"/><text fill="#000000" font-family="sans-serif" font-size="14" font-style="italic" lengthAdjust="spacing" textLength="45" x="545.2" y="634.8467">Regex</text><line style="stroke:#181818;stroke-width:0.5;" x1="487.5" x2="616.5" y1="646" y2="646"/><rect fill="none" height="6" style="stroke:#C82930;stroke-width:1.0;" width="6" x="494.5" y="656.6484"/><text fill="#000000" font-family="sans-serif" font-size="14" lengthAdjust="spacing" textLength="78" x="506.5" y="662.9951">id: number</text><rect fill="none" height="6" style="stroke:#C82930;stroke-width:1.0;" width="6" x="494.5" y="672.9453"/><text fill="#000000" font-family="sans-serif" font-size="14" lengthAdjust="spacing" textLength="105" x="506.5" y="679.292">regex: RegExp</text><line style="stroke:#181818;stroke-width:0.5;" x1="487.5" x2="616.5" y1="686.5938" y2="686.5938"/></g><!--MD5=[5ccd0e0ae59a58538737961d4f4fa522]
class ConstraintRegex--><g id="elem_ConstraintRegex"><rect codeLine="5" fill="#F1F1F1" height="64.2969" id="ConstraintRegex" rx="2.5" ry="2.5" style="stroke:#181818;stroke-width:0.5;" width="155" x="512.5" y="771"/><ellipse cx="528.4" cy="787" fill="#ADD1B2" rx="11" ry="11" style="stroke:#181818;stroke-width:1.0;"/><path d="M530.7438,782.6719 C529.8063,782.2344 529.2125,782.0938 528.3375,782.0938 C525.7125,782.0938 523.7125,784.1719 523.7125,786.8906 L523.7125,788.0156 C523.7125,790.5938 525.8219,792.4844 528.7125,792.4844 C529.9313,792.4844 531.0875,792.1875 531.8375,791.6406 C532.4156,791.2344 532.7438,790.7813 532.7438,790.3906 C532.7438,789.9375 532.3531,789.5469 531.8844,789.5469 C531.6656,789.5469 531.4625,789.625 531.275,789.8125 C530.8219,790.2969 530.8219,790.2969 530.6344,790.3906 C530.2125,790.6563 529.525,790.7813 528.7594,790.7813 C526.7125,790.7813 525.4156,789.6875 525.4156,787.9844 L525.4156,786.8906 C525.4156,785.1094 526.6656,783.7969 528.4,783.7969 C528.9781,783.7969 529.5875,783.9531 530.0563,784.2031 C530.5406,784.4844 530.7125,784.7031 530.8063,785.1094 C530.8688,785.5156 530.9,785.6406 531.0406,785.7656 C531.1813,785.9063 531.4156,786.0156 531.6344,786.0156 C531.9,786.0156 532.1656,785.875 532.3375,785.6563 C532.4469,785.5 532.4781,785.3125 532.4781,784.8906 L532.4781,783.4688 C532.4781,783.0313 532.4625,782.9063 532.3688,782.75 C532.2125,782.4844 531.9313,782.3438 531.6344,782.3438 C531.3375,782.3438 531.1344,782.4375 530.9156,782.75 L530.7438,782.6719 Z " fill="#000000"/><text fill="#000000" font-family="sans-serif" font-size="14" lengthAdjust="spacing" textLength="121" x="542.6" y="791.8467">ConstraintRegex</text><line style="stroke:#181818;stroke-width:0.5;" x1="513.5" x2="666.5" y1="803" y2="803"/><rect fill="none" height="6" style="stroke:#C82930;stroke-width:1.0;" width="6" x="520.5" y="813.6484"/><text fill="#000000" font-family="sans-serif" font-size="14" lengthAdjust="spacing" textLength="129" x="532.5" y="819.9951">location: Location</text><line style="stroke:#181818;stroke-width:0.5;" x1="513.5" x2="666.5" y1="827.2969" y2="827.2969"/></g><!--MD5=[4f1f3706c1a355a8488e154afcaed5df]
class Location--><g id="elem_Location"><rect codeLine="8" fill="#F1F1F1" height="80.5938" id="Location" rx="2.5" ry="2.5" style="stroke:#181818;stroke-width:0.5;" width="94" x="543" y="895"/><ellipse cx="558" cy="911" fill="#EB937F" rx="11" ry="11" style="stroke:#181818;stroke-width:1.0;"/><path d="M556.7969,911.875 L558.25,911.875 L558.25,911.9844 C558.25,912.3906 558.2813,912.5469 558.3594,912.7031 C558.5156,912.9531 558.7969,913.1094 559.0938,913.1094 C559.3438,913.1094 559.6094,912.9688 559.7656,912.75 C559.8906,912.5938 559.9219,912.4375 559.9219,911.9844 L559.9219,910.0625 C559.9219,909.9063 559.9219,909.8594 559.9063,909.7031 C559.8438,909.2344 559.5313,908.9219 559.0781,908.9219 C558.8281,908.9219 558.5625,909.0625 558.3906,909.2813 C558.2813,909.4531 558.25,909.6094 558.25,910.0625 L558.25,910.1875 L556.7969,910.1875 L556.7969,907.7813 L560.7813,907.7813 L560.7813,908.6406 C560.7813,909.0469 560.8125,909.2188 560.8906,909.375 C561.0625,909.625 561.3438,909.7813 561.625,909.7813 C561.8906,909.7813 562.1563,909.6406 562.3281,909.4219 C562.4375,909.25 562.4688,909.1094 562.4688,908.6406 L562.4688,906.0938 L554.8438,906.0938 C554.4063,906.0938 554.2813,906.1094 554.125,906.2031 C553.875,906.3594 553.7188,906.6563 553.7188,906.9375 C553.7188,907.2188 553.8594,907.4688 554.0781,907.6406 C554.2344,907.75 554.4219,907.7813 554.8438,907.7813 L555.0938,907.7813 L555.0938,914.2969 L554.8438,914.2969 C554.4375,914.2969 554.2813,914.3125 554.125,914.4219 C553.875,914.5938 553.7188,914.8594 553.7188,915.1563 C553.7188,915.4219 553.8594,915.6719 554.0781,915.8281 C554.2188,915.9531 554.4531,916 554.8438,916 L562.8438,916 L562.8438,913.4219 C562.8438,912.9844 562.8125,912.8438 562.7344,912.6875 C562.5625,912.4375 562.2813,912.2813 562,912.2813 C561.7344,912.2813 561.4688,912.3906 561.2969,912.6406 C561.1875,912.7969 561.1563,912.9375 561.1563,913.4219 L561.1563,914.2969 L556.7969,914.2969 L556.7969,911.875 Z " fill="#000000"/><text fill="#000000" font-family="sans-serif" font-size="14" lengthAdjust="spacing" textLength="62" x="572" y="915.8467">Location</text><line style="stroke:#181818;stroke-width:0.5;" x1="544" x2="636" y1="927" y2="927"/><text fill="#000000" font-family="sans-serif" font-size="14" lengthAdjust="spacing" textLength="57" x="549" y="943.9951">BEFORE</text><text fill="#000000" font-family="sans-serif" font-size="14" lengthAdjust="spacing" textLength="46" x="549" y="960.292">AFTER</text><line style="stroke:#181818;stroke-width:0.5;" x1="544" x2="636" y1="967.5938" y2="967.5938"/></g><!--MD5=[a786e58e315ef62888074ad18d6d055b]
class ValueRegex--><g id="elem_ValueRegex"><rect codeLine="12" fill="#F1F1F1" height="48" id="ValueRegex" rx="2.5" ry="2.5" style="stroke:#181818;stroke-width:0.5;" width="116" x="722" y="779"/><ellipse cx="737" cy="795" fill="#ADD1B2" rx="11" ry="11" style="stroke:#181818;stroke-width:1.0;"/><path d="M739.3438,790.6719 C738.4063,790.2344 737.8125,790.0938 736.9375,790.0938 C734.3125,790.0938 732.3125,792.1719 732.3125,794.8906 L732.3125,796.0156 C732.3125,798.5938 734.4219,800.4844 737.3125,800.4844 C738.5313,800.4844 739.6875,800.1875 740.4375,799.6406 C741.0156,799.2344 741.3438,798.7813 741.3438,798.3906 C741.3438,797.9375 740.9531,797.5469 740.4844,797.5469 C740.2656,797.5469 740.0625,797.625 739.875,797.8125 C739.4219,798.2969 739.4219,798.2969 739.2344,798.3906 C738.8125,798.6563 738.125,798.7813 737.3594,798.7813 C735.3125,798.7813 734.0156,797.6875 734.0156,795.9844 L734.0156,794.8906 C734.0156,793.1094 735.2656,791.7969 737,791.7969 C737.5781,791.7969 738.1875,791.9531 738.6563,792.2031 C739.1406,792.4844 739.3125,792.7031 739.4063,793.1094 C739.4688,793.5156 739.5,793.6406 739.6406,793.7656 C739.7813,793.9063 740.0156,794.0156 740.2344,794.0156 C740.5,794.0156 740.7656,793.875 740.9375,793.6563 C741.0469,793.5 741.0781,793.3125 741.0781,792.8906 L741.0781,791.4688 C741.0781,791.0313 741.0625,790.9063 740.9688,790.75 C740.8125,790.4844 740.5313,790.3438 740.2344,790.3438 C739.9375,790.3438 739.7344,790.4375 739.5156,790.75 L739.3438,790.6719 Z " fill="#000000"/><text fill="#000000" font-family="sans-serif" font-size="14" lengthAdjust="spacing" textLength="84" x="751" y="799.8467">ValueRegex</text><line style="stroke:#181818;stroke-width:0.5;" x1="723" x2="837" y1="811" y2="811"/><line style="stroke:#181818;stroke-width:0.5;" x1="723" x2="837" y1="819" y2="819"/></g><!--MD5=[2d89e60a12b4e2cada06faf5a6f9b1db]
class RegexGroup--><g id="elem_RegexGroup"><rect codeLine="13" fill="#F1F1F1" height="113.1875" id="RegexGroup" rx="2.5" ry="2.5" style="stroke:#181818;stroke-width:0.5;" width="293" x="652.5" y="598"/><ellipse cx="750.25" cy="614" fill="#ADD1B2" rx="11" ry="11" style="stroke:#181818;stroke-width:1.0;"/><path d="M752.5938,609.6719 C751.6563,609.2344 751.0625,609.0938 750.1875,609.0938 C747.5625,609.0938 745.5625,611.1719 745.5625,613.8906 L745.5625,615.0156 C745.5625,617.5938 747.6719,619.4844 750.5625,619.4844 C751.7813,619.4844 752.9375,619.1875 753.6875,618.6406 C754.2656,618.2344 754.5938,617.7813 754.5938,617.3906 C754.5938,616.9375 754.2031,616.5469 753.7344,616.5469 C753.5156,616.5469 753.3125,616.625 753.125,616.8125 C752.6719,617.2969 752.6719,617.2969 752.4844,617.3906 C752.0625,617.6563 751.375,617.7813 750.6094,617.7813 C748.5625,617.7813 747.2656,616.6875 747.2656,614.9844 L747.2656,613.8906 C747.2656,612.1094 748.5156,610.7969 750.25,610.7969 C750.8281,610.7969 751.4375,610.9531 751.9063,611.2031 C752.3906,611.4844 752.5625,611.7031 752.6563,612.1094 C752.7188,612.5156 752.75,612.6406 752.8906,612.7656 C753.0313,612.9063 753.2656,613.0156 753.4844,613.0156 C753.75,613.0156 754.0156,612.875 754.1875,612.6563 C754.2969,612.5 754.3281,612.3125 754.3281,611.8906 L754.3281,610.4688 C754.3281,610.0313 754.3125,609.9063 754.2188,609.75 C754.0625,609.4844 753.7813,609.3438 753.4844,609.3438 C753.1875,609.3438 752.9844,609.4375 752.7656,609.75 L752.5938,609.6719 Z " fill="#000000"/><text fill="#000000" font-family="sans-serif" font-size="14" lengthAdjust="spacing" textLength="89" x="770.75" y="618.8467">RegexGroup</text><line style="stroke:#181818;stroke-width:0.5;" x1="653.5" x2="944.5" y1="630" y2="630"/><rect fill="none" height="6" style="stroke:#C82930;stroke-width:1.0;" width="6" x="660.5" y="640.6484"/><text fill="#000000" font-family="sans-serif" font-size="14" lengthAdjust="spacing" textLength="78" x="672.5" y="646.9951">id: number</text><rect fill="none" height="6" style="stroke:#C82930;stroke-width:1.0;" width="6" x="660.5" y="656.9453"/><text fill="#000000" font-family="sans-serif" font-size="14" lengthAdjust="spacing" textLength="267" x="672.5" y="663.292">valueRegex?: ValueRegex | undefined</text><rect fill="none" height="6" style="stroke:#C82930;stroke-width:1.0;" width="6" x="660.5" y="673.2422"/><text fill="#000000" font-family="sans-serif" font-size="14" lengthAdjust="spacing" textLength="259" x="672.5" y="679.5889">constraintRegex: ConstraintRegex[]</text><rect fill="none" height="6" style="stroke:#C82930;stroke-width:1.0;" width="6" x="660.5" y="689.5391"/><text fill="#000000" font-family="sans-serif" font-size="14" lengthAdjust="spacing" textLength="125" x="672.5" y="695.8857">enabled: boolean</text><line style="stroke:#181818;stroke-width:0.5;" x1="653.5" x2="944.5" y1="703.1875" y2="703.1875"/></g><!--MD5=[0178c2d492441043e2768ecc10e3bf43]
class CaptureArea--><g id="elem_CaptureArea"><rect codeLine="19" fill="#F1F1F1" height="162.0781" id="CaptureArea" rx="2.5" ry="2.5" style="stroke:#181818;stroke-width:0.5;" width="226" x="686" y="376"/><ellipse cx="749.25" cy="392" fill="#ADD1B2" rx="11" ry="11" style="stroke:#181818;stroke-width:1.0;"/><path d="M751.5938,387.6719 C750.6563,387.2344 750.0625,387.0938 749.1875,387.0938 C746.5625,387.0938 744.5625,389.1719 744.5625,391.8906 L744.5625,393.0156 C744.5625,395.5938 746.6719,397.4844 749.5625,397.4844 C750.7813,397.4844 751.9375,397.1875 752.6875,396.6406 C753.2656,396.2344 753.5938,395.7813 753.5938,395.3906 C753.5938,394.9375 753.2031,394.5469 752.7344,394.5469 C752.5156,394.5469 752.3125,394.625 752.125,394.8125 C751.6719,395.2969 751.6719,395.2969 751.4844,395.3906 C751.0625,395.6563 750.375,395.7813 749.6094,395.7813 C747.5625,395.7813 746.2656,394.6875 746.2656,392.9844 L746.2656,391.8906 C746.2656,390.1094 747.5156,388.7969 749.25,388.7969 C749.8281,388.7969 750.4375,388.9531 750.9063,389.2031 C751.3906,389.4844 751.5625,389.7031 751.6563,390.1094 C751.7188,390.5156 751.75,390.6406 751.8906,390.7656 C752.0313,390.9063 752.2656,391.0156 752.4844,391.0156 C752.75,391.0156 753.0156,390.875 753.1875,390.6563 C753.2969,390.5 753.3281,390.3125 753.3281,389.8906 L753.3281,388.4688 C753.3281,388.0313 753.3125,387.9063 753.2188,387.75 C753.0625,387.4844 752.7813,387.3438 752.4844,387.3438 C752.1875,387.3438 751.9844,387.4375 751.7656,387.75 L751.5938,387.6719 Z " fill="#000000"/><text fill="#000000" font-family="sans-serif" font-size="14" lengthAdjust="spacing" textLength="91" x="769.75" y="396.8467">CaptureArea</text><line style="stroke:#181818;stroke-width:0.5;" x1="687" x2="911" y1="408" y2="408"/><rect fill="none" height="6" style="stroke:#C82930;stroke-width:1.0;" width="6" x="694" y="418.6484"/><text fill="#000000" font-family="sans-serif" font-size="14" lengthAdjust="spacing" textLength="78" x="706" y="424.9951">id: number</text><rect fill="none" height="6" style="stroke:#C82930;stroke-width:1.0;" width="6" x="694" y="434.9453"/><text fill="#000000" font-family="sans-serif" font-size="14" lengthAdjust="spacing" textLength="105" x="706" y="441.292">width: number</text><rect fill="none" height="6" style="stroke:#C82930;stroke-width:1.0;" width="6" x="694" y="451.2422"/><text fill="#000000" font-family="sans-serif" font-size="14" lengthAdjust="spacing" textLength="112" x="706" y="457.5889">height: number</text><rect fill="none" height="6" style="stroke:#C82930;stroke-width:1.0;" width="6" x="694" y="467.5391"/><text fill="#000000" font-family="sans-serif" font-size="14" lengthAdjust="spacing" textLength="91" x="706" y="473.8857">top: number</text><rect fill="none" height="6" style="stroke:#C82930;stroke-width:1.0;" width="6" x="694" y="483.8359"/><text fill="#000000" font-family="sans-serif" font-size="14" lengthAdjust="spacing" textLength="91" x="706" y="490.1826">left: number</text><rect fill="none" height="6" style="stroke:#C82930;stroke-width:1.0;" width="6" x="694" y="500.1328"/><text fill="#000000" font-family="sans-serif" font-size="14" lengthAdjust="spacing" textLength="200" x="706" y="506.4795">regexGroups: RegexGroup[]</text><rect fill="none" height="6" style="stroke:#C82930;stroke-width:1.0;" width="6" x="694" y="516.4297"/><text fill="#000000" font-family="sans-serif" font-size="14" lengthAdjust="spacing" textLength="125" x="706" y="522.7764">enabled: boolean</text><line style="stroke:#181818;stroke-width:0.5;" x1="687" x2="911" y1="530.0781" y2="530.0781"/></g><!--MD5=[9c8718fc21ef8e0562f3b1279c9e76e1]
class DesktopVideoStream--><g id="elem_DesktopVideoStream"><rect codeLine="28" fill="#F1F1F1" height="308.75" id="DesktopVideoStream" rx="2.5" ry="2.5" style="stroke:#181818;stroke-width:0.5;" width="444" x="7" y="7"/><ellipse cx="146.75" cy="23" fill="#ADD1B2" rx="11" ry="11" style="stroke:#181818;stroke-width:1.0;"/><path d="M149.0938,18.6719 C148.1563,18.2344 147.5625,18.0938 146.6875,18.0938 C144.0625,18.0938 142.0625,20.1719 142.0625,22.8906 L142.0625,24.0156 C142.0625,26.5938 144.1719,28.4844 147.0625,28.4844 C148.2813,28.4844 149.4375,28.1875 150.1875,27.6406 C150.7656,27.2344 151.0938,26.7813 151.0938,26.3906 C151.0938,25.9375 150.7031,25.5469 150.2344,25.5469 C150.0156,25.5469 149.8125,25.625 149.625,25.8125 C149.1719,26.2969 149.1719,26.2969 148.9844,26.3906 C148.5625,26.6563 147.875,26.7813 147.1094,26.7813 C145.0625,26.7813 143.7656,25.6875 143.7656,23.9844 L143.7656,22.8906 C143.7656,21.1094 145.0156,19.7969 146.75,19.7969 C147.3281,19.7969 147.9375,19.9531 148.4063,20.2031 C148.8906,20.4844 149.0625,20.7031 149.1563,21.1094 C149.2188,21.5156 149.25,21.6406 149.3906,21.7656 C149.5313,21.9063 149.7656,22.0156 149.9844,22.0156 C150.25,22.0156 150.5156,21.875 150.6875,21.6563 C150.7969,21.5 150.8281,21.3125 150.8281,20.8906 L150.8281,19.4688 C150.8281,19.0313 150.8125,18.9063 150.7188,18.75 C150.5625,18.4844 150.2813,18.3438 149.9844,18.3438 C149.6875,18.3438 149.4844,18.4375 149.2656,18.75 L149.0938,18.6719 Z " fill="#000000"/><text fill="#000000" font-family="sans-serif" font-size="14" lengthAdjust="spacing" textLength="156" x="167.25" y="27.8467">DesktopVideoStream</text><line style="stroke:#181818;stroke-width:0.5;" x1="8" x2="450" y1="39" y2="39"/><rect fill="none" height="6" style="stroke:#C82930;stroke-width:1.0;" width="6" x="15" y="49.6484"/><text fill="#000000" font-family="sans-serif" font-size="14" lengthAdjust="spacing" textLength="224" x="27" y="55.9951">currentSelectedSource: Object</text><rect fill="none" height="6" style="stroke:#C82930;stroke-width:1.0;" width="6" x="15" y="65.9453"/><text fill="#000000" font-family="sans-serif" font-size="14" lengthAdjust="spacing" textLength="242" x="27" y="72.292">desktopCaptureSources: Object[]</text><rect fill="none" height="6" style="stroke:#C82930;stroke-width:1.0;" width="6" x="15" y="82.2422"/><text fill="#000000" font-family="sans-serif" font-size="14" lengthAdjust="spacing" textLength="309" x="27" y="88.5889">isLoadingScreensAndApplications: boolean</text><rect fill="none" height="6" style="stroke:#C82930;stroke-width:1.0;" width="6" x="15" y="98.5391"/><text fill="#000000" font-family="sans-serif" font-size="14" lengthAdjust="spacing" text-decoration="underline" textLength="226" x="27" y="104.8857">instance: DesktopVideoStream</text><line style="stroke:#181818;stroke-width:0.5;" x1="8" x2="450" y1="112.1875" y2="112.1875"/><ellipse cx="18" cy="125.8359" fill="#84BE84" rx="3" ry="3" style="stroke:#038048;stroke-width:1.0;"/><text fill="#000000" font-family="sans-serif" font-size="14" lengthAdjust="spacing" textLength="288" x="27" y="129.1826">fetchAllMediaStreams(): Promise&lt;void&gt;</text><ellipse cx="18" cy="142.1328" fill="#84BE84" rx="3" ry="3" style="stroke:#038048;stroke-width:1.0;"/><text fill="#000000" font-family="sans-serif" font-size="14" lengthAdjust="spacing" textLength="330" x="27" y="145.4795">getDesktopCaptureSources(): Promise&lt;void&gt;</text><ellipse cx="18" cy="158.4297" fill="#84BE84" rx="3" ry="3" style="stroke:#038048;stroke-width:1.0;"/><text fill="#000000" font-family="sans-serif" font-size="14" lengthAdjust="spacing" textLength="402" x="27" y="161.7764">getStreamSource(source: any): Promise&lt;MediaStream&gt;</text><ellipse cx="18" cy="174.7266" fill="#84BE84" rx="3" ry="3" style="stroke:#038048;stroke-width:1.0;"/><text fill="#000000" font-family="sans-serif" font-size="14" lengthAdjust="spacing" textLength="345" x="27" y="178.0732">setCurrentSelectedSource(source: Object): void</text><ellipse cx="18" cy="191.0234" fill="#84BE84" rx="3" ry="3" style="stroke:#038048;stroke-width:1.0;"/><text fill="#000000" font-family="sans-serif" font-size="14" lengthAdjust="spacing" textLength="418" x="27" y="194.3701">setIsLoadingScreensAndApplications(value: boolean): void</text><ellipse cx="18" cy="207.3203" fill="#84BE84" rx="3" ry="3" style="stroke:#038048;stroke-width:1.0;"/><text fill="#000000" font-family="sans-serif" font-size="14" lengthAdjust="spacing" textLength="344" x="27" y="210.667">getIsLoadingScreensAndApplications(): boolean</text><ellipse cx="18" cy="223.6172" fill="#84BE84" rx="3" ry="3" style="stroke:#038048;stroke-width:1.0;"/><text fill="#000000" font-family="sans-serif" font-size="14" lengthAdjust="spacing" textLength="261" x="27" y="226.9639">getCurrentSelectedSource(): Object</text><ellipse cx="18" cy="239.9141" fill="#84BE84" rx="3" ry="3" style="stroke:#038048;stroke-width:1.0;"/><text fill="#000000" font-family="sans-serif" font-size="14" lengthAdjust="spacing" textLength="225" x="27" y="243.2607">getMainScreenSource(): Object</text><ellipse cx="18" cy="256.2109" fill="#84BE84" rx="3" ry="3" style="stroke:#038048;stroke-width:1.0;"/><text fill="#000000" font-family="sans-serif" font-size="14" lengthAdjust="spacing" textLength="241" x="27" y="259.5576">getOnlyScreenSources(): Object[]</text><ellipse cx="18" cy="272.5078" fill="#84BE84" rx="3" ry="3" style="stroke:#038048;stroke-width:1.0;"/><text fill="#000000" font-family="sans-serif" font-size="14" lengthAdjust="spacing" textLength="274" x="27" y="275.8545">getOnlyApplicationSources(): Object[]</text><ellipse cx="18" cy="288.8047" fill="#84BE84" rx="3" ry="3" style="stroke:#038048;stroke-width:1.0;"/><text fill="#000000" font-family="sans-serif" font-size="14" lengthAdjust="spacing" textLength="320" x="27" y="292.1514">getScreenAndApplicationSources(): Object[]</text><ellipse cx="18" cy="305.1016" fill="#84BE84" rx="3" ry="3" style="stroke:#038048;stroke-width:1.0;"/><text fill="#000000" font-family="sans-serif" font-size="14" lengthAdjust="spacing" text-decoration="underline" textLength="261" x="27" y="308.4482">getInstance(): DesktopVideoStream</text></g><!--MD5=[bad5a8134c326c7e970e74afddca9dd5]
class RegexHandler--><g id="elem_RegexHandler"><rect codeLine="46" fill="#F1F1F1" height="48" id="RegexHandler" rx="2.5" ry="2.5" style="stroke:#181818;stroke-width:0.5;" width="132" x="486" y="137.5"/><ellipse cx="501" cy="153.5" fill="#ADD1B2" rx="11" ry="11" style="stroke:#181818;stroke-width:1.0;"/><path d="M503.3438,149.1719 C502.4063,148.7344 501.8125,148.5938 500.9375,148.5938 C498.3125,148.5938 496.3125,150.6719 496.3125,153.3906 L496.3125,154.5156 C496.3125,157.0938 498.4219,158.9844 501.3125,158.9844 C502.5313,158.9844 503.6875,158.6875 504.4375,158.1406 C505.0156,157.7344 505.3438,157.2813 505.3438,156.8906 C505.3438,156.4375 504.9531,156.0469 504.4844,156.0469 C504.2656,156.0469 504.0625,156.125 503.875,156.3125 C503.4219,156.7969 503.4219,156.7969 503.2344,156.8906 C502.8125,157.1563 502.125,157.2813 501.3594,157.2813 C499.3125,157.2813 498.0156,156.1875 498.0156,154.4844 L498.0156,153.3906 C498.0156,151.6094 499.2656,150.2969 501,150.2969 C501.5781,150.2969 502.1875,150.4531 502.6563,150.7031 C503.1406,150.9844 503.3125,151.2031 503.4063,151.6094 C503.4688,152.0156 503.5,152.1406 503.6406,152.2656 C503.7813,152.4063 504.0156,152.5156 504.2344,152.5156 C504.5,152.5156 504.7656,152.375 504.9375,152.1563 C505.0469,152 505.0781,151.8125 505.0781,151.3906 L505.0781,149.9688 C505.0781,149.5313 505.0625,149.4063 504.9688,149.25 C504.8125,148.9844 504.5313,148.8438 504.2344,148.8438 C503.9375,148.8438 503.7344,148.9375 503.5156,149.25 L503.3438,149.1719 Z " fill="#000000"/><text fill="#000000" font-family="sans-serif" font-size="14" lengthAdjust="spacing" textLength="100" x="515" y="158.3467">RegexHandler</text><line style="stroke:#181818;stroke-width:0.5;" x1="487" x2="617" y1="169.5" y2="169.5"/><line style="stroke:#181818;stroke-width:0.5;" x1="487" x2="617" y1="177.5" y2="177.5"/></g><!--MD5=[d8f49dbd3c86309d212c28c328cc19c2]
class TesseractHandler--><g id="elem_TesseractHandler"><rect codeLine="47" fill="#F1F1F1" height="96.8906" id="TesseractHandler" rx="2.5" ry="2.5" style="stroke:#181818;stroke-width:0.5;" width="292" x="653" y="113"/><ellipse cx="732.25" cy="129" fill="#ADD1B2" rx="11" ry="11" style="stroke:#181818;stroke-width:1.0;"/><path d="M734.5938,124.6719 C733.6563,124.2344 733.0625,124.0938 732.1875,124.0938 C729.5625,124.0938 727.5625,126.1719 727.5625,128.8906 L727.5625,130.0156 C727.5625,132.5938 729.6719,134.4844 732.5625,134.4844 C733.7813,134.4844 734.9375,134.1875 735.6875,133.6406 C736.2656,133.2344 736.5938,132.7813 736.5938,132.3906 C736.5938,131.9375 736.2031,131.5469 735.7344,131.5469 C735.5156,131.5469 735.3125,131.625 735.125,131.8125 C734.6719,132.2969 734.6719,132.2969 734.4844,132.3906 C734.0625,132.6563 733.375,132.7813 732.6094,132.7813 C730.5625,132.7813 729.2656,131.6875 729.2656,129.9844 L729.2656,128.8906 C729.2656,127.1094 730.5156,125.7969 732.25,125.7969 C732.8281,125.7969 733.4375,125.9531 733.9063,126.2031 C734.3906,126.4844 734.5625,126.7031 734.6563,127.1094 C734.7188,127.5156 734.75,127.6406 734.8906,127.7656 C735.0313,127.9063 735.2656,128.0156 735.4844,128.0156 C735.75,128.0156 736.0156,127.875 736.1875,127.6563 C736.2969,127.5 736.3281,127.3125 736.3281,126.8906 L736.3281,125.4688 C736.3281,125.0313 736.3125,124.9063 736.2188,124.75 C736.0625,124.4844 735.7813,124.3438 735.4844,124.3438 C735.1875,124.3438 734.9844,124.4375 734.7656,124.75 L734.5938,124.6719 Z " fill="#000000"/><text fill="#000000" font-family="sans-serif" font-size="14" lengthAdjust="spacing" textLength="125" x="752.75" y="133.8467">TesseractHandler</text><line style="stroke:#181818;stroke-width:0.5;" x1="654" x2="944" y1="145" y2="145"/><rect fill="none" height="6" style="stroke:#C82930;stroke-width:1.0;" width="6" x="661" y="155.6484"/><text fill="#000000" font-family="sans-serif" font-size="14" lengthAdjust="spacing" textLength="247" x="673" y="161.9951">stream?: MediaStream | undefined</text><rect fill="none" height="6" style="stroke:#C82930;stroke-width:1.0;" width="6" x="661" y="171.9453"/><text fill="#000000" font-family="sans-serif" font-size="14" lengthAdjust="spacing" textLength="122" x="673" y="178.292">worker: Worker[]</text><rect fill="none" height="6" style="stroke:#C82930;stroke-width:1.0;" width="6" x="661" y="188.2422"/><text fill="#000000" font-family="sans-serif" font-size="14" lengthAdjust="spacing" textLength="266" x="673" y="194.5889">enabledCaptureAreas: CaptureArea[]</text><line style="stroke:#181818;stroke-width:0.5;" x1="654" x2="944" y1="201.8906" y2="201.8906"/></g><!--MD5=[6cea8f761fa7e7e66f1e7977ecd95c99]
class Vigad--><g id="elem_Vigad"><rect codeLine="52" fill="#F1F1F1" height="64.2969" id="Vigad" rx="2.5" ry="2.5" style="stroke:#181818;stroke-width:0.5;" width="110" x="174" y="425"/><ellipse cx="206.1" cy="441" fill="#ADD1B2" rx="11" ry="11" style="stroke:#181818;stroke-width:1.0;"/><path d="M208.4438,436.6719 C207.5063,436.2344 206.9125,436.0938 206.0375,436.0938 C203.4125,436.0938 201.4125,438.1719 201.4125,440.8906 L201.4125,442.0156 C201.4125,444.5938 203.5219,446.4844 206.4125,446.4844 C207.6313,446.4844 208.7875,446.1875 209.5375,445.6406 C210.1156,445.2344 210.4438,444.7813 210.4438,444.3906 C210.4438,443.9375 210.0531,443.5469 209.5844,443.5469 C209.3656,443.5469 209.1625,443.625 208.975,443.8125 C208.5219,444.2969 208.5219,444.2969 208.3344,444.3906 C207.9125,444.6563 207.225,444.7813 206.4594,444.7813 C204.4125,444.7813 203.1156,443.6875 203.1156,441.9844 L203.1156,440.8906 C203.1156,439.1094 204.3656,437.7969 206.1,437.7969 C206.6781,437.7969 207.2875,437.9531 207.7563,438.2031 C208.2406,438.4844 208.4125,438.7031 208.5063,439.1094 C208.5688,439.5156 208.6,439.6406 208.7406,439.7656 C208.8813,439.9063 209.1156,440.0156 209.3344,440.0156 C209.6,440.0156 209.8656,439.875 210.0375,439.6563 C210.1469,439.5 210.1781,439.3125 210.1781,438.8906 L210.1781,437.4688 C210.1781,437.0313 210.1625,436.9063 210.0688,436.75 C209.9125,436.4844 209.6313,436.3438 209.3344,436.3438 C209.0375,436.3438 208.8344,436.4375 208.6156,436.75 L208.4438,436.6719 Z " fill="#000000"/><text fill="#000000" font-family="sans-serif" font-size="14" lengthAdjust="spacing" textLength="40" x="223.9" y="445.8467">Vigad</text><line style="stroke:#181818;stroke-width:0.5;" x1="175" x2="283" y1="457" y2="457"/><line style="stroke:#181818;stroke-width:0.5;" x1="175" x2="283" y1="465" y2="465"/><ellipse cx="185" cy="478.6484" fill="#84BE84" rx="3" ry="3" style="stroke:#038048;stroke-width:1.0;"/><text fill="#000000" font-family="sans-serif" font-size="14" lengthAdjust="spacing" textLength="84" x="194" y="481.9951">main(): void</text></g><!--MD5=[56545fd31a0ca4d0b2d2c2b4726c0cb1]
reverse link Regex to ConstraintRegex--><g id="link_Regex_ConstraintRegex"><path d="M567.372,714.764 C572.339,733.911 577.649,754.382 581.876,770.679 " fill="none" id="Regex-backto-ConstraintRegex" style="stroke:#181818;stroke-width:1.0;"/><polygon fill="none" points="560.529,716.262,562.283,695.145,574.081,712.747,560.529,716.262" style="stroke:#181818;stroke-width:1.0;"/></g><!--MD5=[b300b01078b78672a87a76dec1f64879]
reverse link Regex to ValueRegex--><g id="link_Regex_ValueRegex"><path d="M627.54,706.145 C630.053,707.787 632.545,709.409 635,711 C671.291,734.514 713.169,760.696 742.56,778.916 " fill="none" id="Regex-backto-ValueRegex" style="stroke:#181818;stroke-width:1.0;"/><polygon fill="none" points="623.66,711.971,610.805,695.126,631.359,700.278,623.66,711.971" style="stroke:#181818;stroke-width:1.0;"/></g><!--MD5=[b8dd4a66148ee9c971d54f37f147cb63]
link ConstraintRegex to Location--><g id="link_ConstraintRegex_Location"><path codeLine="55" d="M590,835.258 C590,851.385 590,871.356 590,889.1453 " fill="none" id="ConstraintRegex-to-Location" style="stroke:#181818;stroke-width:1.0;"/><polygon fill="#181818" points="590,894.5894,594,885.5894,590,889.5894,586,885.5894,590,894.5894" style="stroke:#181818;stroke-width:1.0;"/><text fill="#000000" font-family="sans-serif" font-size="13" lengthAdjust="spacing" textLength="8" x="581.3625" y="883.9838">1</text></g><!--MD5=[f36210e33759911198670e8be7aeeb6d]
link RegexGroup to ValueRegex--><g id="link_RegexGroup_ValueRegex"><path codeLine="56" d="M791.763,711.303 C789.007,732.555 785.981,755.886 783.688,773.563 " fill="none" id="RegexGroup-to-ValueRegex" style="stroke:#181818;stroke-width:1.0;"/><polygon fill="#181818" points="783.001,778.859,788.1249,770.448,783.6438,773.9005,780.1913,769.4194,783.001,778.859" style="stroke:#181818;stroke-width:1.0;"/><text fill="#000000" font-family="sans-serif" font-size="13" lengthAdjust="spacing" textLength="8" x="774.745" y="767.8349">1</text></g><!--MD5=[168bee231ab33ae0f79ec8590b3381d5]
link RegexGroup to ConstraintRegex--><g id="link_RegexGroup_ConstraintRegex"><path codeLine="57" d="M719.688,711.094 C692.397,730.224 662.67,751.062 638.569,767.955 " fill="none" id="RegexGroup-to-ConstraintRegex" style="stroke:#181818;stroke-width:1.0;"/><polygon fill="#181818" points="634.444,770.846,644.1097,768.9554,638.5383,767.976,639.5177,762.4046,634.444,770.846" style="stroke:#181818;stroke-width:1.0;"/><text fill="#000000" font-family="sans-serif" font-size="13" lengthAdjust="spacing" textLength="7" x="635.8887" y="759.7173">*</text></g><!--MD5=[4509d1dd1823860a20f7ef1e88876ec9]
link CaptureArea to RegexGroup--><g id="link_CaptureArea_RegexGroup"><path codeLine="58" d="M799,538.081 C799,556.238 799,575.237 799,592.457 " fill="none" id="CaptureArea-to-RegexGroup" style="stroke:#181818;stroke-width:1.0;"/><polygon fill="#181818" points="799,597.741,803,588.741,799,592.741,795,588.741,799,597.741" style="stroke:#181818;stroke-width:1.0;"/><text fill="#000000" font-family="sans-serif" font-size="13" lengthAdjust="spacing" textLength="7" x="791.5734" y="586.973">*</text></g><!--MD5=[f52e23fbf9a60022390e2c427f5d6e57]
link TesseractHandler to CaptureArea--><g id="link_TesseractHandler_CaptureArea"><path codeLine="59" d="M799,210.309 C799,253.661 799,318.577 799,370.796 " fill="none" id="TesseractHandler-to-CaptureArea" style="stroke:#181818;stroke-width:1.0;"/><polygon fill="#181818" points="799,375.808,803,366.808,799,370.808,795,366.808,799,375.808" style="stroke:#181818;stroke-width:1.0;"/><text fill="#000000" font-family="sans-serif" font-size="13" lengthAdjust="spacing" textLength="7" x="791.6883" y="364.9782">*</text></g><!--MD5=[622ea1d8948e8aaeb4fdb4badb07b283]
@startuml
abstract class Regex {
    -id: number
    -regex: RegExp
}
class ConstraintRegex extends Regex {
    -location: Location
}
enum Location {
    BEFORE
    AFTER
}
class ValueRegex extends Regex
class RegexGroup {
    -id: number
    -valueRegex?: ValueRegex | undefined
    -constraintRegex: ConstraintRegex[]
    -enabled: boolean
}
class CaptureArea {
    -id: number
    -width: number
    -height: number
    -top: number
    -left: number
    -regexGroups: RegexGroup[]
    -enabled: boolean
}
class DesktopVideoStream {
    -currentSelectedSource: Object
    -desktopCaptureSources: Object[]
    -isLoadingScreensAndApplications: boolean
    +fetchAllMediaStreams(): Promise<void>
    +getDesktopCaptureSources(): Promise<void>
    +getStreamSource(source: any): Promise<MediaStream>
    +setCurrentSelectedSource(source: Object): void
    +setIsLoadingScreensAndApplications(value: boolean): void
    +getIsLoadingScreensAndApplications(): boolean
    +getCurrentSelectedSource(): Object
    +getMainScreenSource(): Object
    +getOnlyScreenSources(): Object[]
    +getOnlyApplicationSources(): Object[]
    +getScreenAndApplicationSources(): Object[]
    -{static} instance: DesktopVideoStream
    +{static} getInstance(): DesktopVideoStream
}
class RegexHandler
class TesseractHandler {
    -stream?: MediaStream | undefined
    -worker: Worker[]
    -enabledCaptureAreas: CaptureArea[]
}
class Vigad {
    +main(): void
}
ConstraintRegex - -> "1" Location
RegexGroup - -> "1" ValueRegex
RegexGroup - -> "*" ConstraintRegex
CaptureArea - -> "*" RegexGroup
TesseractHandler - -> "*" CaptureArea
@enduml

PlantUML version 1.2022.14beta1(Unknown compile time)
(GPL source distribution)
Java Runtime: Java(TM) SE Runtime Environment
JVM: Java HotSpot(TM) 64-Bit Server VM
Default Encoding: UTF-8
Language: en
Country: US
--></g></svg>